;Layer: Drill NPTH
;EasyEDA v6.4.0, 2020-07-15T14:14:54--5:00
;b3c21e9d98434acf968649de900d4150,a7c2b416e861464fa72e98bd65157655,10
;Gerber Generator version 0.2
M48
INCH,LZ,00.0000
;Holesize 1 = 0.079 INCH
T01C0.079
;Holesize 2 = 0.122 INCH
T02C0.122
;Holesize 3 = 0.130 INCH
T03C0.130
%
G05
G90
T01
X+024283Y+000811
X+020917Y+000813
X+019833Y+000811
X+016467Y+000813
X+015383Y+000811
X+012017Y+000813
X+010933Y+000811
X+007567Y+000813
X+006483Y+000811
X+003117Y+000813
X+040533Y+000811
X+037167Y+000813
X+028733Y+000811
X+025366Y+000813
T02
X+039662Y+017600
X+029823Y+017600
T03
X+001400Y+001500
X+042900Y+001450
X+042850Y+020300
X+001550Y+020300
M30
