;Layer: Drill PTH
;EasyEDA v6.4.0, 2020-07-15T14:14:54--5:00
;b3c21e9d98434acf968649de900d4150,a7c2b416e861464fa72e98bd65157655,10
;Gerber Generator version 0.2
M48
INCH,LZ,00.0000
;Holesize 1 = 0.012 INCH
T01C0.012
;Holesize 2 = 0.028 INCH
T02C0.028
;Holesize 3 = 0.032 INCH
T03C0.032
;Holesize 4 = 0.039 INCH
T04C0.039
;Holesize 5 = 0.043 INCH
T05C0.043
;Holesize 6 = 0.047 INCH
T06C0.047
;Holesize 7 = 0.051 INCH
T07C0.051
%
G05
G90
T01
X+026439Y+009544
X+026660Y+007703
X+016443Y+008101
X+031043Y+009255
X+026693Y+007032
X+028444Y+007263
X+026923Y+017865
X+028923Y+017865
X+007325Y+011313
X+011325Y+011313
X+017325Y+011313
X+018805Y+009884
X+020805Y+011884
X+022805Y+013884
X+022805Y+011884
X+022805Y+009884
X+024805Y+015884
X+024805Y+013884
X+024805Y+011884
X+024805Y+009884
X+026805Y+015884
X+026805Y+013884
X+028805Y+015884
X+000421Y+021228
X+000421Y+019228
X+000421Y+017228
X+000421Y+015228
X+000421Y+013228
X+000421Y+011228
X+000421Y+009228
X+000421Y+007228
X+000421Y+005228
X+000421Y+003228
X+000421Y+001228
X+002421Y+021228
X+002421Y+019228
X+002421Y+005228
X+002421Y+003228
X+002421Y+001228
X+004421Y+021228
X+004421Y+019228
X+004421Y+013228
X+004421Y+005228
X+004421Y+001228
X+006421Y+019228
X+006421Y+003228
X+008421Y+019228
X+008421Y+013228
X+008421Y+001228
X+010421Y+019228
X+010421Y+013228
X+012421Y+021228
X+012421Y+019228
X+012421Y+015228
X+012421Y+007228
X+014421Y+021228
X+014421Y+019228
X+014421Y+015228
X+014421Y+013228
X+014421Y+005228
X+014421Y+001228
X+016421Y+021228
X+016421Y+019228
X+016421Y+015228
X+016421Y+013228
X+016421Y+003228
X+018421Y+021228
X+018421Y+019228
X+018421Y+005228
X+020421Y+021228
X+020421Y+003228
X+022421Y+021228
X+022421Y+005228
X+024421Y+021228
X+024421Y+005228
X+024421Y+003228
X+026421Y+021228
X+026421Y+005228
X+028421Y+021228
X+028421Y+011228
X+028421Y+005228
X+028421Y+003228
X+030421Y+021228
X+030421Y+013228
X+030421Y+011228
X+030421Y+007228
X+030421Y+005228
X+030421Y+003228
X+030421Y+001228
X+032421Y+021228
X+032421Y+015228
X+032421Y+013228
X+032421Y+007228
X+032421Y+005228
X+032421Y+001228
X+034421Y+021228
X+034421Y+015228
X+034421Y+013228
X+034421Y+011228
X+034421Y+009228
X+034421Y+001228
X+036421Y+021228
X+036421Y+019228
X+036421Y+015228
X+036421Y+013228
X+036421Y+011228
X+036421Y+009228
X+036421Y+007228
X+036421Y+005228
X+036421Y+001228
X+038421Y+021228
X+038421Y+019228
X+038421Y+017228
X+038421Y+015228
X+038421Y+013228
X+038421Y+011228
X+038421Y+009228
X+038421Y+007228
X+038421Y+005228
X+038421Y+001228
X+040421Y+021228
X+040421Y+019228
X+040421Y+015228
X+040421Y+013228
X+040421Y+011228
X+040421Y+009228
X+040421Y+007228
X+040421Y+005228
X+040421Y+003228
X+042421Y+021228
X+042421Y+019228
X+042421Y+017228
X+042421Y+015228
X+042421Y+013228
X+042421Y+011228
X+042421Y+009228
X+042421Y+007228
X+042421Y+005228
X+042421Y+003228
T02
X+020400Y+016400
X+020400Y+017400
X+020400Y+018400
X+020400Y+019400
X+017400Y+019400
X+017400Y+018400
X+017400Y+017400
X+017400Y+016400
T03
X+034700Y+004550
X+033700Y+004550
X+032700Y+004550
T04
X+034398Y+017600
X+033496Y+017600
X+035300Y+017600
X+032595Y+017600
X+036201Y+017600
X+036652Y+016600
X+035750Y+016600
X+034849Y+016600
X+033947Y+016600
X+033046Y+016600
X+036652Y+018600
X+035750Y+018600
X+034849Y+018600
X+033947Y+018600
X+033046Y+018600
X+022600Y+004120G85X+022600Y+003529
X+018150Y+004120G85X+018150Y+003529
X+013700Y+004120G85X+013700Y+003529
X+009250Y+004120G85X+009250Y+003529
X+004800Y+004120G85X+004800Y+003529
X+038850Y+004120G85X+038850Y+003529
X+027050Y+004120G85X+027050Y+003529
T05
X+034700Y+003550
X+032700Y+003550
T06
X+005050Y+017550
X+003050Y+017550
X+004050Y+016550
X+002050Y+016550
X+005050Y+015550
X+003050Y+015550
X+004050Y+014550
X+002050Y+014550
X+005050Y+013550
X+003050Y+013550
X+004050Y+012550
X+002050Y+012550
X+005050Y+011550
X+003050Y+011550
X+004050Y+010550
X+002050Y+010550
X+005050Y+009550
X+003050Y+009550
X+004050Y+008550
X+002050Y+008550
X+005050Y+007550
X+003050Y+007550
X+004050Y+006550
X+002050Y+006550
X+011450Y+021050
X+011450Y+018050
X+010450Y+021050
X+010450Y+018050
X+009450Y+021050
X+009450Y+018050
T07
X+022363Y+002053G85X+022835Y+002053
X+017913Y+002053G85X+018385Y+002053
X+013463Y+002053G85X+013935Y+002053
X+009013Y+002053G85X+009485Y+002053
X+004563Y+002053G85X+005035Y+002053
X+038613Y+002053G85X+039085Y+002053
X+026813Y+002053G85X+027285Y+002053
M30
